<svg width="18" height="19" viewBox="0 0 18 19" fill="none" xmlns="http://www.w3.org/2000/svg" data-v-3f620210=""><path d="M5 0.487793C2.243 0.487793 0 2.73079 0 5.48779V13.4878C0 16.2448 2.243 18.4878 5 18.4878H13C15.757 18.4878 18 16.2448 18 13.4878V5.48779C18 2.73079 15.757 0.487793 13 0.487793H5ZM5 2.48779H13C14.654 2.48779 16 3.83379 16 5.48779V13.4878C16 15.1418 14.654 16.4878 13 16.4878H5C3.346 16.4878 2 15.1418 2 13.4878V5.48779C2 3.83379 3.346 2.48779 5 2.48779ZM14 3.48779C13.7348 3.48779 13.4804 3.59315 13.2929 3.78069C13.1054 3.96822 13 4.22258 13 4.48779C13 4.75301 13.1054 5.00736 13.2929 5.1949C13.4804 5.38244 13.7348 5.48779 14 5.48779C14.2652 5.48779 14.5196 5.38244 14.7071 5.1949C14.8946 5.00736 15 4.75301 15 4.48779C15 4.22258 14.8946 3.96822 14.7071 3.78069C14.5196 3.59315 14.2652 3.48779 14 3.48779ZM9 4.48779C6.243 4.48779 4 6.73079 4 9.48779C4 12.2448 6.243 14.4878 9 14.4878C11.757 14.4878 14 12.2448 14 9.48779C14 6.73079 11.757 4.48779 9 4.48779ZM9 6.48779C10.654 6.48779 12 7.83379 12 9.48779C12 11.1418 10.654 12.4878 9 12.4878C7.346 12.4878 6 11.1418 6 9.48779C6 7.83379 7.346 6.48779 9 6.48779Z" fill="white" fill-opacity="0.6" data-v-3f620210=""></path></svg>