<svg width="22" height="17" viewBox="0 0 22 17" fill="none" xmlns="http://www.w3.org/2000/svg" data-v-3f620210=""><path fill-rule="evenodd" clip-rule="evenodd" d="M19.0065 15.9746C20.1376 15.813 21.0532 14.9513 21.2687 13.8202C21.4841 12.5814 21.6996 10.7501 21.7534 8.48789C21.7534 6.22571 21.4841 4.39443 21.2687 3.15562C21.0532 2.02453 20.1376 1.16275 19.0065 1.00117C17.1752 0.73186 14.2667 0.408691 10.9273 0.408691C7.58789 0.408691 4.62552 0.73186 2.8481 1.00117C1.71701 1.16275 0.801365 2.02453 0.58592 3.15562C0.370475 4.39443 0.155029 6.22571 0.155029 8.48789C0.155029 10.7501 0.370475 12.5814 0.58592 13.8202C0.801365 14.9513 1.71701 15.813 2.8481 15.9746C4.67938 16.2439 7.64175 16.5671 10.9273 16.5671C14.2667 16.5671 17.2291 16.2439 19.0065 15.9746ZM15.2362 8.48804L8.77281 4.71774V12.2583L15.2362 8.48804Z" fill="white" fill-opacity="0.6" data-v-3f620210=""></path></svg>