<svg width="20" height="19" viewBox="0 0 20 19" fill="none" xmlns="http://www.w3.org/2000/svg" data-v-3f620210=""><path fill-rule="evenodd" clip-rule="evenodd" d="M2.80519 2.98366C4.60132 1.24739 7.0374 0.271973 9.57752 0.271973C12.1176 0.271973 14.5537 1.24739 16.3499 2.98366C18.146 4.71992 19.155 7.0748 19.155 9.53024C19.155 11.9857 18.146 14.3406 16.3499 16.0768C14.8621 17.515 12.9353 18.4311 10.874 18.7033V11.9842H13.3526L13.7417 9.55024H10.8735V8.21997C10.8735 7.20887 11.2153 6.31228 12.1937 6.31228H13.7659V4.18824L13.7511 4.1863C13.469 4.14943 12.8861 4.07324 11.8015 4.07324C9.49639 4.07324 8.14495 5.25002 8.14495 7.93102V9.55024H5.77527V11.9842H8.14495V18.6844C6.13501 18.3905 4.26014 17.4833 2.80519 16.0768C1.00906 14.3406 0 11.9857 0 9.53024C0 7.0748 1.00906 4.71992 2.80519 2.98366Z" fill="white" fill-opacity="0.6" data-v-3f620210=""></path></svg>